<?xml version="1.0" encoding="UTF-8"?>
<svg id="Layer_1" xmlns="http://www.w3.org/2000/svg" version="1.1" viewBox="0 0 252.02 229.91">
  <!-- Generator: Adobe Illustrator 29.5.0, SVG Export Plug-In . SVG Version: 2.1.0 Build 137)  -->
  <defs>
    <style>
      .st0 {
        fill: #231f20;
      }

      .st1 {
        fill: #c0904e;
      }
    </style>
  </defs>
  <rect class="st0" y="159.99" width="252" height="25.33"/>
  <polygon class="st0" points="240.25 172.65 240.25 160.88 205.17 160.88 205.17 137.57 228.48 137.57 228.48 172.65 240.25 172.65 240.25 160.88 240.25 172.65 252.02 172.65 252.02 114.02 181.62 114.02 181.62 184.42 252.02 184.42 252.02 172.65 240.25 172.65"/>
  <rect class="st0" x="138.66" width="23.43" height="159.99"/>
  <polygon class="st0" points="119.55 172.65 119.55 116.33 0 116.33 0 139.87 96 139.87 96 172.65 119.55 172.65"/>
  <rect class="st1" x="59.63" y="189.4" width="12.62" height="12.62"/>
  <rect class="st1" x="34.29" y="189.4" width="12.62" height="12.62"/>
  <rect class="st1" x="84.98" y="189.4" width="12.62" height="12.62"/>
  <rect class="st1" x="197.84" y="95.43" width="12.62" height="12.62"/>
  <rect class="st1" x="223.18" y="95.43" width="12.62" height="12.62"/>
  <polygon class="st0" points=".08 165.19 .08 229.91 252 229.91 252 206.36 23.63 206.36 23.63 165.19 .08 165.19"/>
</svg>