<?xml version="1.0" encoding="UTF-8"?>
<svg id="Layer_1" xmlns="http://www.w3.org/2000/svg" version="1.1" viewBox="0 0 252.02 229.91">
  <!-- Generator: Adobe Illustrator 29.5.0, SVG Export Plug-In . SVG Version: 2.1.0 Build 137)  -->
  <defs>
    <style>
      .st0 {
        fill: #c0904e;
      }

      .st1 {
        fill: #fff;
      }
    </style>
  </defs>
  <rect class="st1" x="-.01" y="159.99" width="252" height="25.33"/>
  <polygon class="st1" points="240.24 172.65 240.24 160.88 205.16 160.88 205.16 137.57 228.47 137.57 228.47 172.65 240.24 172.65 240.24 160.88 240.24 172.65 252.01 172.65 252.01 114.02 181.61 114.02 181.61 184.42 252.01 184.42 252.01 172.65 240.24 172.65"/>
  <rect class="st1" x="138.64" width="23.43" height="159.99"/>
  <polygon class="st1" points="119.54 172.65 119.54 116.33 -.01 116.33 -.01 139.87 95.99 139.87 95.99 172.65 119.54 172.65"/>
  <rect class="st0" x="59.62" y="189.4" width="12.62" height="12.62"/>
  <rect class="st0" x="34.28" y="189.4" width="12.62" height="12.62"/>
  <rect class="st0" x="84.97" y="189.4" width="12.62" height="12.62"/>
  <rect class="st0" x="197.83" y="95.43" width="12.62" height="12.62"/>
  <rect class="st0" x="223.17" y="95.43" width="12.62" height="12.62"/>
  <polygon class="st1" points=".07 165.19 .07 229.91 251.99 229.91 251.99 206.36 23.62 206.36 23.62 165.19 .07 165.19"/>
</svg>