<?xml version="1.0" encoding="UTF-8"?>
<svg id="Layer_1" xmlns="http://www.w3.org/2000/svg" version="1.1" viewBox="0 0 137.62 229.91">
  <!-- Generator: Adobe Illustrator 29.5.0, SVG Export Plug-In . SVG Version: 2.1.0 Build 137)  -->
  <defs>
    <style>
      .st0 {
        fill: #231f20;
      }

      .st1 {
        fill: #c0904e;
      }
    </style>
  </defs>
  <path class="st0" d="M133.89,129.21s-13.64,5.66-34.1,1.02c0,0-20.31-3.92-22.63-38.74,0,0-.44-19.22.44-21.87,0,0-1.31,50.49,49.4,38.52-2.41-1.93-5.1-3.9-8.08-5.82-6.38-4.13-12.51-7.04-17.87-9.13-1.07-.42-12.68-5.88-19.05-13.77-8.75-10.83-7.32-26.01-5.76-34.26.99,3.34,2.52,7.13,4.95,10.99,8.89,14.14,23.44,19.11,28.91,20.66,3.4.83,8.73,2.62,13.97,6.79,9.88,7.85,12.48,18.6,13.17,22.04v23.72"/>
  <path class="st1" d="M100.74,55.22s-9.91-11.79,0-21.7c9.91-9.91,0,21.7,0,21.7Z"/>
  <path class="st1" d="M100.74,55.22l1.18-.99-.03-.04c-.41-.47-4.05-5.28-4.01-10.64.02-2.86.93-5.89,3.95-8.94.62-.62,1.12-1.03,1.48-1.25l.39-.2.07-.02-.02-.11v.11h.02s-.02-.11-.02-.11v.11-.54l-.34.41.34.13v-.54l-.34.41.22-.27-.27.21.05.05.22-.27-.27.21h0c.08.11.25.81.24,1.78.01,2.9-1.06,8.02-2.15,12.27-.54,2.14-1.09,4.08-1.5,5.48-.41,1.41-.68,2.26-.68,2.27l1.47.46,1.18-.99-1.18.99,1.47.46s1.11-3.55,2.22-7.91c1.11-4.38,2.24-9.5,2.25-13.03,0-1.06-.09-1.99-.43-2.87-.18-.44-.44-.88-.88-1.25-.43-.37-1.05-.58-1.62-.57-.79,0-1.44.3-2.08.69-.64.41-1.29.96-2.02,1.68-3.58,3.56-4.87,7.55-4.85,11.12.05,7.14,4.69,12.53,4.76,12.66l1.81,2.15.84-2.69-1.47-.46Z"/>
  <path class="st1" d="M114.57,60.58s-9.91-11.79,0-21.7c9.91-9.91,0,21.7,0,21.7Z"/>
  <path class="st1" d="M114.57,60.58l1.18-.99-.03-.04c-.41-.47-4.05-5.28-4.01-10.64.02-2.86.93-5.89,3.95-8.94.62-.62,1.12-1.03,1.48-1.25l.39-.2.07-.02-.02-.11v.11h.02s-.02-.11-.02-.11v.11-.54l-.34.41.34.13v-.54l-.34.41.22-.27-.27.21.05.05.22-.27-.27.21h0c.08.11.25.81.24,1.78.01,2.9-1.06,8.02-2.15,12.27-.54,2.14-1.09,4.08-1.5,5.48-.41,1.41-.68,2.26-.68,2.27l1.47.46,1.18-.99-1.18.99,1.47.46s1.11-3.55,2.22-7.91c1.11-4.38,2.24-9.5,2.25-13.03,0-1.06-.09-1.99-.43-2.87-.18-.44-.44-.88-.88-1.25-.43-.37-1.05-.58-1.62-.57-.79,0-1.44.3-2.08.69-.64.41-1.29.96-2.02,1.68-3.58,3.56-4.87,7.55-4.85,11.12.05,7.14,4.69,12.53,4.76,12.66l1.81,2.15.84-2.69-1.47-.46Z"/>
  <path class="st1" d="M69.66,147.53s7.68,6.51,2.39,13.98c-5.29,7.47-2.39-13.98-2.39-13.98Z"/>
  <path class="st1" d="M69.66,147.53l-.65.77.02.02c.31.26,3.19,2.96,3.76,6.42.31,1.85.05,3.9-1.56,6.2-.33.47-.61.79-.82.97l-.23.17-.04.02.03.07v-.07s-.03,0-.03,0l.03.07v-.07s.05.35.05.35l.17-.3-.23-.04.06.35.17-.3-.11.2.15-.17-.04-.03-.11.2.15-.17h0c-.06-.06-.25-.5-.35-1.12-.33-1.87-.2-5.28.04-8.14.12-1.44.25-2.75.36-3.7.11-.95.19-1.53.19-1.53l-1-.14-.65.77.65-.77-1-.14s-.33,2.41-.56,5.34c-.23,2.94-.4,6.37-.02,8.65.12.68.27,1.27.59,1.8.16.26.38.52.71.71.32.19.74.26,1.11.19.51-.09.89-.35,1.26-.68.37-.33.73-.76,1.12-1.31,1.92-2.69,2.31-5.4,1.9-7.7-.82-4.6-4.4-7.56-4.46-7.64l-1.4-1.19-.25,1.82,1,.14Z"/>
  <path class="st1" d="M69.66,105.06s7.68,6.51,2.39,13.98c-5.29,7.47-2.39-13.98-2.39-13.98Z"/>
  <path class="st1" d="M69.66,105.06l-.65.77.02.02c.31.26,3.19,2.96,3.76,6.42.31,1.85.05,3.9-1.56,6.2-.33.47-.61.79-.82.97l-.23.17-.04.02.03.07v-.07s-.03,0-.03,0l.03.07v-.07s.05.35.05.35l.17-.3-.23-.04.06.35.17-.3-.11.2.15-.17-.04-.03-.11.2.15-.17h0c-.06-.06-.25-.5-.35-1.12-.33-1.87-.2-5.28.04-8.14.12-1.44.25-2.75.36-3.7.11-.95.19-1.53.19-1.53l-1-.14-.65.77.65-.77-1-.14s-.33,2.41-.56,5.34c-.23,2.94-.4,6.37-.02,8.65.12.68.27,1.27.59,1.8.16.26.38.52.71.71.32.19.74.26,1.11.19.51-.09.89-.35,1.26-.68.37-.33.73-.76,1.12-1.31,1.92-2.69,2.31-5.4,1.9-7.7-.82-4.6-4.4-7.56-4.46-7.64l-1.4-1.19-.25,1.82,1,.14Z"/>
  <path class="st1" d="M69.66,127.28s7.68,6.51,2.39,13.98c-5.29,7.47-2.39-13.98-2.39-13.98Z"/>
  <path class="st1" d="M69.66,127.28l-.65.77.02.02c.31.26,3.19,2.96,3.76,6.42.31,1.85.05,3.9-1.56,6.2-.33.47-.61.79-.82.97l-.23.17-.04.02.03.07v-.07s-.03,0-.03,0l.03.07v-.07s.05.35.05.35l.17-.3-.23-.04.06.35.17-.3-.11.2.15-.17-.04-.03-.11.2.15-.17h0c-.06-.06-.25-.5-.35-1.12-.33-1.87-.2-5.28.04-8.14.12-1.44.25-2.75.36-3.7.11-.95.19-1.53.19-1.53l-1-.14-.65.77.65-.77-1-.14s-.33,2.41-.56,5.34c-.23,2.94-.4,6.37-.02,8.65.12.68.27,1.27.59,1.8.16.26.38.52.71.71.32.19.74.26,1.11.19.51-.09.89-.35,1.26-.68.37-.33.73-.76,1.12-1.31,1.92-2.69,2.31-5.4,1.9-7.7-.82-4.6-4.4-7.56-4.46-7.64l-1.4-1.19-.25,1.82,1,.14Z"/>
  <path class="st1" d="M76.23,45.16c2.07,6.92,5.18,11.49,7.53,14.31,0,0,8.76,10.54,28.48,17.75.24.09,1.78.63,3.78,1.56.51.24.93.44,1.22.59-1.91.32-17.31,2.59-29.62-8.65-10.95-9.99-11.36-23.28-11.4-25.55Z"/>
  <path class="st1" d="M77.46,94.97c.94,8.75,4.12,14.13,6.3,17.04,0,0,7.57,10.11,28.48,17.75.24.09,1.78.63,3.78,1.56.51.24.93.44,1.22.59-1.51.29-17.34,3.06-29.62-8.65-11.89-11.33-10.37-26.6-10.17-28.28Z"/>
  <path class="st0" d="M124.31,119.93c.22,2.02.32,4.03.32,6.01,0,14.05-5.29,27.1-14.18,37.05-8.89,9.95-21.3,16.74-35.61,18.27-2.02.22-4.03.32-6.01.32-14.05,0-27.1-5.29-37.05-14.18-9.95-8.89-16.74-21.3-18.27-35.61l-12.91,1.38c1.88,17.6,10.29,32.99,22.53,43.91,12.24,10.93,28.37,17.48,45.7,17.48,2.44,0,4.91-.13,7.39-.4,17.6-1.88,32.99-10.29,43.91-22.53,10.93-12.24,17.48-28.37,17.48-45.7,0-2.44-.13-4.91-.4-7.39l-12.91,1.38Z"/>
  <polygon class="st0" points="62.57 64.19 62.57 .28 49.58 .28 49.58 183.62 49.58 214.7 49.58 229.72 62.57 229.72 62.57 214.7 62.57 183.62 62.57 .28 49.58 .28 49.58 64.19 62.57 64.19"/>
  <path class="st0" d="M15.01,140.13c-1.15-4.47-1.76-9.15-1.76-13.97,0-.67.01-1.35.04-2.03.34-9.47,2.99-18.27,7.41-25.93,4.41-7.66,10.59-14.17,17.94-18.98l.16-.11-.17.11.03-.02c.35-.23,3.99-2.58,8.02-4.78,2.01-1.1,4.13-2.16,5.87-2.88.86-.36,1.63-.63,2.18-.78.27-.08.48-.12.6-.14h.1s-.09-.95-.09-.95v.94h.09s-.09-.94-.09-.94v.94-3.1l-.67,3.02c.35.08.56.08.67.08v-3.1l-.67,3.02,2.82-12.68c-.79-.17-1.5-.23-2.15-.23-1.63.01-2.93.31-4.22.66-2.23.64-4.39,1.58-6.57,2.62-3.25,1.57-6.44,3.4-8.88,4.86-2.43,1.46-4.09,2.54-4.14,2.57h0c-9.06,5.93-16.65,13.93-22.09,23.37C4,101.16.72,112.05.31,123.67c-.03.83-.04,1.66-.04,2.49,0,5.92.75,11.7,2.17,17.21l12.58-3.24Z"/>
</svg>