<?xml version="1.0" encoding="UTF-8"?>
<svg id="Layer_1" xmlns="http://www.w3.org/2000/svg" version="1.1" viewBox="0 0 137.62 229.91">
  <!-- Generator: Adobe Illustrator 29.5.0, SVG Export Plug-In . SVG Version: 2.1.0 Build 137)  -->
  <defs>
    <style>
      .st0 {
        fill: #c0904e;
      }

      .st1 {
        fill: #fff;
      }
    </style>
  </defs>
  <path class="st1" d="M133.88,128.99s-13.66,5.67-34.16,1.02c0,0-20.35-3.92-22.68-38.81,0,0-.44-19.26.44-21.91,0,0-1.31,50.59,49.5,38.6-2.42-1.93-5.11-3.9-8.1-5.83-6.4-4.13-12.54-7.06-17.91-9.15-1.07-.42-12.71-5.89-19.09-13.79-8.76-10.85-7.34-26.06-5.77-34.33.99,3.35,2.53,7.15,4.96,11.01,8.91,14.17,23.49,19.15,28.96,20.7,3.41.83,8.75,2.63,13.99,6.8,9.89,7.87,12.51,18.64,13.19,22.08v23.77"/>
  <path class="st0" d="M100.67,54.86s-9.93-11.82,0-21.74c9.93-9.93,0,21.74,0,21.74Z"/>
  <path class="st0" d="M100.67,54.86l1.18-.99-.03-.04c-.41-.47-4.06-5.29-4.02-10.66.02-2.87.93-5.91,3.96-8.96.62-.62,1.13-1.03,1.48-1.25l.39-.2.07-.02-.02-.11v.11h.02s-.02-.11-.02-.11v.11-.54l-.34.41.34.13v-.54l-.34.41.22-.27-.27.21.06.05.22-.27-.27.21h0c.08.11.25.81.24,1.79.01,2.91-1.06,8.03-2.16,12.29-.55,2.14-1.09,4.09-1.5,5.49-.41,1.41-.68,2.27-.68,2.27l1.47.46,1.18-.99-1.18.99,1.47.46s1.11-3.56,2.23-7.92c1.11-4.39,2.24-9.52,2.25-13.06,0-1.06-.09-1.99-.43-2.87-.18-.44-.44-.88-.88-1.25-.43-.37-1.06-.58-1.62-.57-.79,0-1.44.3-2.08.7-.64.41-1.3.96-2.02,1.68-3.59,3.57-4.88,7.57-4.86,11.14.05,7.15,4.7,12.56,4.77,12.69l1.81,2.16.84-2.69-1.47-.46Z"/>
  <path class="st0" d="M114.53,60.23s-9.93-11.82,0-21.74c9.93-9.93,0,21.74,0,21.74Z"/>
  <path class="st0" d="M114.53,60.23l1.18-.99-.03-.04c-.41-.47-4.06-5.29-4.02-10.66.02-2.87.93-5.91,3.96-8.96.62-.62,1.13-1.03,1.48-1.25l.39-.2.07-.02-.02-.11v.11h.02s-.02-.11-.02-.11v.11-.54l-.34.41.34.13v-.54l-.34.41.22-.27-.27.21.06.05.22-.27-.27.21h0c.08.11.25.81.24,1.79.01,2.91-1.06,8.03-2.16,12.29-.55,2.14-1.09,4.09-1.5,5.49-.41,1.41-.68,2.27-.68,2.27l1.47.46,1.18-.99-1.18.99,1.47.46s1.11-3.56,2.23-7.92c1.11-4.39,2.24-9.52,2.25-13.06,0-1.06-.09-1.99-.43-2.87-.18-.44-.44-.88-.88-1.25-.43-.37-1.06-.58-1.62-.57-.79,0-1.44.3-2.08.7-.64.41-1.3.96-2.02,1.68-3.59,3.57-4.88,7.57-4.86,11.14.05,7.15,4.7,12.56,4.77,12.69l1.81,2.16.84-2.69-1.47-.46Z"/>
  <path class="st0" d="M69.53,147.34s7.7,6.52,2.39,14.01c-5.3,7.49-2.39-14.01-2.39-14.01Z"/>
  <path class="st0" d="M69.53,147.34l-.65.77.02.02c.31.26,3.2,2.96,3.76,6.43.31,1.85.05,3.91-1.57,6.21-.33.47-.61.79-.82.97l-.23.17-.04.02.03.07v-.07s-.03,0-.03,0l.03.07v-.07s.05.35.05.35l.17-.3-.23-.04.06.35.17-.3-.11.2.15-.17-.04-.03-.11.2.15-.17h0c-.06-.06-.25-.5-.35-1.13-.33-1.87-.2-5.29.04-8.16.12-1.44.25-2.75.36-3.7.11-.95.19-1.54.19-1.54l-1-.14-.65.77.65-.77-1-.14s-.33,2.41-.56,5.35c-.23,2.95-.4,6.38-.02,8.66.12.68.28,1.28.6,1.8.16.26.38.52.71.71.32.19.74.26,1.11.19.51-.09.9-.35,1.27-.68.37-.33.73-.76,1.12-1.31,1.92-2.69,2.31-5.41,1.91-7.71-.82-4.6-4.41-7.57-4.47-7.65l-1.41-1.19-.25,1.83,1,.14Z"/>
  <path class="st0" d="M69.53,104.79s7.7,6.52,2.39,14.01c-5.3,7.49-2.39-14.01-2.39-14.01Z"/>
  <path class="st0" d="M69.53,104.79l-.65.77.02.02c.31.26,3.2,2.96,3.76,6.43.31,1.85.05,3.91-1.57,6.21-.33.47-.61.79-.82.97l-.23.17-.04.02.03.07v-.07s-.03,0-.03,0l.03.07v-.07s.05.35.05.35l.17-.3-.23-.04.06.35.17-.3-.11.2.15-.17-.04-.03-.11.2.15-.17h0c-.06-.06-.25-.5-.35-1.13-.33-1.87-.2-5.29.04-8.16.12-1.44.25-2.75.36-3.7.11-.95.19-1.54.19-1.54l-1-.14-.65.77.65-.77-1-.14s-.33,2.41-.56,5.35c-.23,2.95-.4,6.38-.02,8.66.12.68.28,1.28.6,1.8.16.26.38.52.71.71.32.19.74.26,1.11.19.51-.09.9-.35,1.27-.68.37-.33.73-.76,1.12-1.31,1.92-2.69,2.31-5.41,1.91-7.71-.82-4.6-4.41-7.57-4.47-7.65l-1.41-1.19-.25,1.83,1,.14Z"/>
  <path class="st0" d="M69.53,127.05s7.7,6.52,2.39,14.01c-5.3,7.49-2.39-14.01-2.39-14.01Z"/>
  <path class="st0" d="M69.53,127.05l-.65.77.02.02c.31.26,3.2,2.96,3.76,6.43.31,1.85.05,3.91-1.57,6.21-.33.47-.61.79-.82.97l-.23.17-.04.02.03.07v-.07s-.03,0-.03,0l.03.07v-.07s.05.35.05.35l.17-.3-.23-.04.06.35.17-.3-.11.2.15-.17-.04-.03-.11.2.15-.17h0c-.06-.06-.25-.5-.35-1.13-.33-1.87-.2-5.29.04-8.16.12-1.44.25-2.75.36-3.7.11-.95.19-1.54.19-1.54l-1-.14-.65.77.65-.77-1-.14s-.33,2.41-.56,5.35c-.23,2.95-.4,6.38-.02,8.66.12.68.28,1.28.6,1.8.16.26.38.52.71.71.32.19.74.26,1.11.19.51-.09.9-.35,1.27-.68.37-.33.73-.76,1.12-1.31,1.92-2.69,2.31-5.41,1.91-7.71-.82-4.6-4.41-7.57-4.47-7.65l-1.41-1.19-.25,1.83,1,.14Z"/>
  <path class="st0" d="M76.12,44.77c2.08,6.94,5.19,11.52,7.54,14.34,0,0,8.78,10.56,28.54,17.78.24.09,1.78.64,3.79,1.56.51.24.93.44,1.23.59-1.92.32-17.34,2.6-29.68-8.66-10.97-10.01-11.39-23.32-11.42-25.6Z"/>
  <path class="st0" d="M77.35,94.68c.94,8.77,4.13,14.16,6.31,17.08,0,0,7.59,10.13,28.54,17.78.24.09,1.78.64,3.79,1.56.51.24.93.44,1.23.59-1.52.29-17.37,3.07-29.68-8.66-11.91-11.35-10.39-26.65-10.19-28.34Z"/>
  <path class="st1" d="M124.28,119.68c.22,2.02.32,4.03.32,6.02,0,14.07-5.3,27.15-14.21,37.12-8.91,9.97-21.34,16.77-35.68,18.31-2.02.22-4.03.32-6.02.32-14.07,0-27.15-5.3-37.12-14.21-9.97-8.91-16.77-21.34-18.31-35.68l-12.94,1.39c1.88,17.63,10.31,33.05,22.58,44,12.26,10.95,28.42,17.51,45.79,17.51,2.45,0,4.92-.13,7.41-.4,17.63-1.88,33.05-10.31,44-22.58,10.95-12.26,17.51-28.42,17.51-45.79,0-2.45-.13-4.92-.4-7.41l-12.94,1.39Z"/>
  <polygon class="st1" points="62.42 63.84 62.42 -.19 49.41 -.19 49.41 183.5 49.41 214.64 49.41 229.68 62.42 229.68 62.42 214.64 62.42 183.5 62.42 -.19 49.41 -.19 49.41 63.84 62.42 63.84"/>
  <path class="st1" d="M14.78,139.93c-1.15-4.48-1.77-9.16-1.77-13.99,0-.68.01-1.35.04-2.04.34-9.49,3-18.3,7.42-25.98,4.42-7.67,10.61-14.2,17.98-19.02l.16-.11-.17.11.03-.02c.35-.23,3.99-2.58,8.04-4.79,2.01-1.1,4.14-2.17,5.88-2.89.87-.36,1.64-.63,2.18-.78.27-.08.48-.12.6-.14h.1s-.09-.96-.09-.96v.95h.09s-.09-.95-.09-.95v.95-3.11l-.67,3.03c.35.08.57.08.67.08v-3.11l-.67,3.03,2.82-12.7c-.79-.18-1.5-.23-2.15-.23-1.63.01-2.94.31-4.23.67-2.23.64-4.4,1.58-6.58,2.63-3.25,1.57-6.46,3.41-8.9,4.87-2.44,1.46-4.1,2.55-4.15,2.58h0c-9.07,5.94-16.68,13.95-22.13,23.41C3.74,100.88.46,111.79.04,123.43.01,124.27,0,125.1,0,125.93c0,5.93.76,11.72,2.18,17.24l12.6-3.25Z"/>
</svg>